<?xml version="1.0" ?><svg height="32" width="32" xmlns="http://www.w3.org/2000/svg"><path d="M15.999.002c8.837 0 16 7.164 16 16 0 8.837-7.163 16-16 16s-16-7.163-16-16c0-8.836 7.163-16 16-16z" fill="#E4E7E7"/><path d="M15.011 15.998c0 2.203-1.793 3.99-4.006 3.99s-4.006-1.787-4.006-3.99 1.793-3.991 4.006-3.991 4.006 1.788 4.006 3.991z" fill="#FF0084"/><path d="M25.011 15.998c0 2.203-1.793 3.99-4.006 3.99s-4.006-1.787-4.006-3.99 1.793-3.991 4.006-3.991 4.006 1.788 4.006 3.991z" fill="#0063DC"/></svg>
